<?xml version="1.0" standalone="no"?>
<!DOCTYPE svg PUBLIC "-//W3C//DTD SVG 20010904//EN"
 "http://www.w3.org/TR/2001/REC-SVG-20010904/DTD/svg10.dtd">
<svg version="1.0" xmlns="http://www.w3.org/2000/svg"
 width="619.000000pt" height="619.000000pt" viewBox="0 0 619.000000 619.000000"
 preserveAspectRatio="xMidYMid meet">

<g transform="translate(0.000000,619.000000) scale(0.100000,-0.100000)"
fill="#474747" stroke="none">
<path d="M3048 6170 c-56 -33 -85 -151 -92 -379 -3 -90 -7 -165 -9 -168 -3 -2
-36 -8 -73 -14 -38 -5 -103 -14 -144 -20 -299 -41 -586 -133 -845 -268 -186
-97 -276 -154 -390 -246 -161 -129 -189 -146 -178 -106 17 66 -151 229 -313
301 -81 37 -108 38 -130 5 -31 -48 0 -133 101 -276 59 -83 161 -169 201 -169
13 0 24 -6 24 -13 0 -6 -34 -55 -75 -107 -285 -359 -445 -706 -541 -1168 -8
-40 -19 -125 -23 -188 -4 -63 -12 -119 -17 -124 -5 -5 -88 -14 -184 -19 -193
-11 -257 -26 -314 -73 -46 -38 -48 -74 -6 -117 54 -53 125 -72 312 -80 103 -5
172 -12 181 -19 9 -8 16 -41 20 -94 11 -154 68 -397 141 -600 109 -301 257
-559 482 -834 49 -61 53 -74 23 -74 -31 0 -96 -49 -174 -131 -85 -90 -138
-167 -160 -237 -22 -66 -14 -98 29 -119 31 -14 37 -14 85 2 95 31 236 158 338
304 20 28 42 51 50 51 8 0 49 -29 92 -64 368 -306 910 -531 1376 -571 44 -4
87 -11 96 -16 13 -7 18 -36 23 -166 12 -261 47 -357 128 -355 38 1 75 34 98
87 23 54 29 91 39 268 5 85 14 154 21 162 6 8 33 17 58 20 281 34 427 63 600
122 315 106 603 264 807 443 94 82 100 85 123 60 10 -11 25 -33 33 -48 36 -70
182 -223 257 -268 58 -34 145 -44 172 -19 30 27 26 96 -9 171 -54 115 -210
272 -292 294 -21 6 -39 15 -39 20 0 4 18 30 40 57 194 237 314 429 430 686 82
184 172 534 186 725 11 140 2 132 146 132 202 0 334 28 393 85 46 42 47 83 5
118 -56 47 -166 70 -393 83 -149 8 -140 1 -151 124 -21 244 -94 533 -193 765
-84 197 -265 492 -388 633 -30 34 -55 66 -55 70 0 4 21 18 47 32 66 35 155
120 207 199 86 128 108 215 64 245 -55 39 -126 8 -287 -124 -109 -89 -169
-158 -156 -179 3 -6 0 -11 -8 -11 -16 0 -93 51 -206 137 -154 118 -419 260
-641 346 -188 73 -414 125 -702 162 l-46 6 -7 72 c-36 394 -44 434 -97 471
-25 18 -65 20 -90 6z m279 -1125 c265 -35 444 -86 646 -184 425 -207 763 -571
938 -1009 102 -255 141 -463 141 -752 0 -218 -15 -354 -62 -536 -120 -466
-427 -889 -842 -1161 -321 -211 -803 -327 -1213 -293 -582 47 -1027 285 -1399
744 -161 200 -280 441 -350 711 -52 197 -70 338 -70 530 -1 436 119 814 369
1162 39 54 133 161 210 239 202 203 379 318 660 429 231 91 450 132 726 134
74 0 185 -6 246 -14z"/>
<path d="M3042 4913 c-13 -2 -27 -15 -32 -28 -15 -38 -68 -421 -76 -540 -7
-117 -15 -145 -41 -145 -33 0 -163 -44 -297 -102 -89 -38 -147 -57 -161 -54
-12 3 -67 39 -121 79 -123 91 -270 185 -360 231 -117 61 -186 46 -164 -35 21
-75 243 -425 335 -527 25 -28 45 -56 45 -63 0 -8 -14 -34 -31 -59 -51 -76 -81
-140 -124 -265 -50 -144 -24 -130 -321 -175 -270 -41 -406 -68 -421 -83 -11
-12 -17 -51 -15 -94 3 -40 63 -59 367 -113 94 -16 211 -40 262 -51 l92 -22 12
-51 c27 -118 72 -238 109 -294 22 -33 40 -67 40 -75 0 -9 -60 -107 -133 -219
-191 -291 -247 -382 -247 -399 0 -9 18 -35 40 -59 33 -36 43 -41 66 -36 34 9
128 74 315 218 80 62 170 130 200 150 l55 38 125 -54 c68 -29 175 -70 237 -91
87 -28 115 -42 121 -59 5 -11 11 -66 15 -121 8 -118 52 -444 66 -497 9 -30 17
-39 45 -47 32 -9 89 -2 114 14 7 4 16 18 21 30 9 24 48 315 70 521 7 61 15
116 19 121 3 5 67 29 141 52 74 24 170 61 213 84 l79 40 43 -21 c48 -23 163
-103 335 -232 155 -117 191 -140 233 -147 72 -11 111 72 70 150 -23 45 -289
442 -334 499 l-37 48 68 133 c37 73 80 172 95 220 26 84 29 87 64 96 64 17
180 39 405 76 121 20 227 40 237 45 21 12 30 69 18 114 -11 42 -30 49 -174 71
-108 16 -480 83 -506 91 -11 3 -28 41 -49 107 -39 124 -73 205 -117 275 -18
29 -33 60 -33 69 0 9 26 50 59 92 60 78 196 283 269 407 47 79 53 123 22 154
-39 39 -80 24 -280 -107 -63 -42 -168 -114 -233 -161 l-118 -85 -104 47 c-132
59 -215 90 -296 111 -35 9 -67 20 -72 24 -4 4 -14 81 -22 172 -14 161 -49 436
-61 484 -3 13 -11 28 -17 34 -15 11 -94 21 -125 14z m163 -794 c229 -28 453
-130 608 -278 115 -109 199 -247 259 -424 28 -84 31 -106 36 -257 7 -255 -21
-407 -109 -581 -106 -212 -327 -403 -552 -477 -420 -140 -840 -35 -1133 281
-183 198 -262 426 -251 732 6 179 33 298 97 426 166 334 413 519 765 575 103
16 169 16 280 3z"/>
<path d="M2876 3770 c-148 -32 -313 -121 -433 -235 l-58 -54 70 34 c141 69
217 88 360 93 180 6 328 -24 470 -96 224 -112 466 -383 531 -595 11 -37 21
-53 26 -45 14 23 9 279 -7 341 -49 188 -211 387 -391 479 -137 71 -208 90
-354 94 -97 3 -145 0 -214 -16z"/>
<path d="M2524 3363 c-53 -125 -66 -179 -71 -296 -6 -128 5 -210 40 -292 78
-186 250 -341 433 -390 80 -22 260 -22 344 0 193 50 361 193 447 381 45 99 22
156 -105 258 -148 120 -377 231 -624 302 -137 39 -324 74 -399 74 -47 0 -49
-1 -65 -37z m212 -28 c3 -8 -3 -29 -14 -47 -30 -49 -61 -154 -68 -228 -13
-133 32 -253 135 -362 110 -117 235 -162 373 -133 110 23 185 64 261 144 67
71 78 94 118 234 12 42 27 77 33 77 23 0 55 -31 65 -63 25 -75 -46 -235 -149
-337 -171 -171 -423 -210 -645 -101 -87 43 -160 106 -214 184 -118 172 -112
469 12 604 41 44 82 57 93 28z"/>
</g>
</svg>
